<mxfile host="app.diagrams.net" modified="2024-04-15T14:22:18.981Z" agent="Mozilla/5.0 (Windows NT 10.0; Win64; x64) AppleWebKit/537.36 (KHTML, like Gecko) Chrome/123.0.0.0 Safari/537.36" etag="OBTOexd_wldBup2ZsaRA" version="24.2.5" type="device">
  <diagram name="Pagina-1" id="BaRYJP46SEVp_7w-0Xdb">
    <mxGraphModel dx="3267" dy="1292" grid="1" gridSize="10" guides="1" tooltips="1" connect="1" arrows="1" fold="1" page="1" pageScale="1" pageWidth="827" pageHeight="1169" background="#ffffff" math="0" shadow="0">
      <root>
        <mxCell id="0" />
        <mxCell id="1" parent="0" />
        <mxCell id="3V6S1HHqgzO34eC3wB2g-3" value="&lt;b style=&quot;font-weight:normal;&quot; id=&quot;docs-internal-guid-7942f7b9-7fff-d7cf-f2d4-40ea38739836&quot;&gt;&lt;p dir=&quot;ltr&quot; style=&quot;line-height:1.38;margin-left: 36pt;margin-top:0pt;margin-bottom:0pt;&quot;&gt;&lt;span style=&quot;font-size:12pt;font-family:Arial,sans-serif;color:#000000;background-color:transparent;font-weight:400;font-style:normal;font-variant:normal;text-decoration:none;vertical-align:baseline;white-space:pre;white-space:pre-wrap;&quot;&gt;Perché ci si mette sempre un’ora a scegliere cosa guardare la sera? Certo è difficile mettere d’accordo i gusti di tutti, poi dipende anche in base al tempo (o al sonno) che abbiamo. Delle volte si pensa di vedere quel bel film che ci hanno consigliato, mentre altre volte si viene risucchiati da quella serie tv che ci tiene incollati allo schermo. Che senso di vuoto quando poi finisce!&amp;nbsp;&lt;/span&gt;&lt;/p&gt;&lt;/b&gt;&lt;br class=&quot;Apple-interchange-newline&quot;&gt;" style="text;whiteSpace=wrap;html=1;" vertex="1" parent="1">
          <mxGeometry x="-20" width="560" height="170" as="geometry" />
        </mxCell>
        <mxCell id="3V6S1HHqgzO34eC3wB2g-8" value="" style="edgeStyle=orthogonalEdgeStyle;rounded=0;orthogonalLoop=1;jettySize=auto;html=1;" edge="1" parent="1" source="3V6S1HHqgzO34eC3wB2g-5" target="3V6S1HHqgzO34eC3wB2g-7">
          <mxGeometry relative="1" as="geometry" />
        </mxCell>
        <mxCell id="3V6S1HHqgzO34eC3wB2g-5" value="Scelta su cosa visionare la sera" style="strokeWidth=2;html=1;shape=mxgraph.flowchart.start_1;whiteSpace=wrap;" vertex="1" parent="1">
          <mxGeometry x="-130" y="150" width="260" height="120" as="geometry" />
        </mxCell>
        <mxCell id="3V6S1HHqgzO34eC3wB2g-20" value="" style="edgeStyle=orthogonalEdgeStyle;rounded=0;orthogonalLoop=1;jettySize=auto;html=1;entryX=0.549;entryY=-0.069;entryDx=0;entryDy=0;entryPerimeter=0;" edge="1" parent="1" source="3V6S1HHqgzO34eC3wB2g-6" target="3V6S1HHqgzO34eC3wB2g-23">
          <mxGeometry relative="1" as="geometry">
            <mxPoint x="315" y="650" as="targetPoint" />
          </mxGeometry>
        </mxCell>
        <mxCell id="3V6S1HHqgzO34eC3wB2g-32" value="TRUE" style="edgeLabel;html=1;align=center;verticalAlign=middle;resizable=0;points=[];" vertex="1" connectable="0" parent="3V6S1HHqgzO34eC3wB2g-20">
          <mxGeometry x="-0.3457" y="1" relative="1" as="geometry">
            <mxPoint as="offset" />
          </mxGeometry>
        </mxCell>
        <mxCell id="3V6S1HHqgzO34eC3wB2g-6" value="t &amp;gt;= 1h" style="strokeWidth=2;html=1;shape=mxgraph.flowchart.decision;whiteSpace=wrap;" vertex="1" parent="1">
          <mxGeometry x="-75" y="470" width="150" height="160" as="geometry" />
        </mxCell>
        <mxCell id="3V6S1HHqgzO34eC3wB2g-11" value="" style="edgeStyle=orthogonalEdgeStyle;rounded=0;orthogonalLoop=1;jettySize=auto;html=1;" edge="1" parent="1" source="3V6S1HHqgzO34eC3wB2g-7" target="3V6S1HHqgzO34eC3wB2g-6">
          <mxGeometry relative="1" as="geometry" />
        </mxCell>
        <mxCell id="3V6S1HHqgzO34eC3wB2g-7" value="Tempo a disposizione" style="whiteSpace=wrap;html=1;strokeWidth=2;" vertex="1" parent="1">
          <mxGeometry x="-110" y="320" width="220" height="110" as="geometry" />
        </mxCell>
        <mxCell id="3V6S1HHqgzO34eC3wB2g-30" value="" style="edgeStyle=orthogonalEdgeStyle;rounded=0;orthogonalLoop=1;jettySize=auto;html=1;" edge="1" parent="1" target="3V6S1HHqgzO34eC3wB2g-29">
          <mxGeometry relative="1" as="geometry">
            <mxPoint x="-190" y="550" as="sourcePoint" />
          </mxGeometry>
        </mxCell>
        <mxCell id="3V6S1HHqgzO34eC3wB2g-48" value="" style="edgeStyle=orthogonalEdgeStyle;rounded=0;orthogonalLoop=1;jettySize=auto;html=1;" edge="1" parent="1" source="3V6S1HHqgzO34eC3wB2g-23" target="3V6S1HHqgzO34eC3wB2g-47">
          <mxGeometry relative="1" as="geometry" />
        </mxCell>
        <mxCell id="3V6S1HHqgzO34eC3wB2g-23" value="Film" style="whiteSpace=wrap;html=1;strokeWidth=2;" vertex="1" parent="1">
          <mxGeometry x="210" y="730" width="120" height="60" as="geometry" />
        </mxCell>
        <mxCell id="3V6S1HHqgzO34eC3wB2g-36" value="" style="edgeStyle=orthogonalEdgeStyle;rounded=0;orthogonalLoop=1;jettySize=auto;html=1;" edge="1" parent="1" source="3V6S1HHqgzO34eC3wB2g-29" target="3V6S1HHqgzO34eC3wB2g-35">
          <mxGeometry relative="1" as="geometry">
            <Array as="points">
              <mxPoint x="-280" y="820" />
            </Array>
          </mxGeometry>
        </mxCell>
        <mxCell id="3V6S1HHqgzO34eC3wB2g-39" value="TRUE" style="edgeLabel;html=1;align=center;verticalAlign=middle;resizable=0;points=[];" vertex="1" connectable="0" parent="3V6S1HHqgzO34eC3wB2g-36">
          <mxGeometry x="-0.8077" y="3" relative="1" as="geometry">
            <mxPoint as="offset" />
          </mxGeometry>
        </mxCell>
        <mxCell id="3V6S1HHqgzO34eC3wB2g-38" value="" style="edgeStyle=orthogonalEdgeStyle;rounded=0;orthogonalLoop=1;jettySize=auto;html=1;" edge="1" parent="1" source="3V6S1HHqgzO34eC3wB2g-29" target="3V6S1HHqgzO34eC3wB2g-37">
          <mxGeometry relative="1" as="geometry">
            <Array as="points">
              <mxPoint x="-510" y="820" />
            </Array>
          </mxGeometry>
        </mxCell>
        <mxCell id="3V6S1HHqgzO34eC3wB2g-40" value="FALSE" style="edgeLabel;html=1;align=center;verticalAlign=middle;resizable=0;points=[];" vertex="1" connectable="0" parent="3V6S1HHqgzO34eC3wB2g-38">
          <mxGeometry x="-0.7949" y="-2" relative="1" as="geometry">
            <mxPoint as="offset" />
          </mxGeometry>
        </mxCell>
        <mxCell id="3V6S1HHqgzO34eC3wB2g-29" value="t &amp;gt;= 30" style="rhombus;whiteSpace=wrap;html=1;strokeWidth=2;" vertex="1" parent="1">
          <mxGeometry x="-420" y="780" width="80" height="80" as="geometry" />
        </mxCell>
        <mxCell id="3V6S1HHqgzO34eC3wB2g-59" style="edgeStyle=orthogonalEdgeStyle;rounded=0;orthogonalLoop=1;jettySize=auto;html=1;entryX=0.5;entryY=0;entryDx=0;entryDy=0;" edge="1" parent="1" source="3V6S1HHqgzO34eC3wB2g-35" target="3V6S1HHqgzO34eC3wB2g-47">
          <mxGeometry relative="1" as="geometry" />
        </mxCell>
        <mxCell id="3V6S1HHqgzO34eC3wB2g-35" value="Serie TV" style="whiteSpace=wrap;html=1;strokeWidth=2;" vertex="1" parent="1">
          <mxGeometry x="-330" y="840" width="120" height="60" as="geometry" />
        </mxCell>
        <mxCell id="3V6S1HHqgzO34eC3wB2g-60" style="edgeStyle=orthogonalEdgeStyle;rounded=0;orthogonalLoop=1;jettySize=auto;html=1;" edge="1" parent="1" source="3V6S1HHqgzO34eC3wB2g-37">
          <mxGeometry relative="1" as="geometry">
            <mxPoint x="-30" y="950" as="targetPoint" />
          </mxGeometry>
        </mxCell>
        <mxCell id="3V6S1HHqgzO34eC3wB2g-37" value="Anime" style="whiteSpace=wrap;html=1;strokeWidth=2;" vertex="1" parent="1">
          <mxGeometry x="-570" y="880" width="120" height="60" as="geometry" />
        </mxCell>
        <mxCell id="3V6S1HHqgzO34eC3wB2g-42" style="edgeStyle=orthogonalEdgeStyle;rounded=0;orthogonalLoop=1;jettySize=auto;html=1;exitX=0;exitY=0.5;exitDx=0;exitDy=0;exitPerimeter=0;entryX=0.49;entryY=-0.062;entryDx=0;entryDy=0;entryPerimeter=0;" edge="1" parent="1" source="3V6S1HHqgzO34eC3wB2g-6" target="3V6S1HHqgzO34eC3wB2g-29">
          <mxGeometry relative="1" as="geometry" />
        </mxCell>
        <mxCell id="3V6S1HHqgzO34eC3wB2g-43" value="FALSE" style="edgeLabel;html=1;align=center;verticalAlign=middle;resizable=0;points=[];" vertex="1" connectable="0" parent="3V6S1HHqgzO34eC3wB2g-42">
          <mxGeometry x="-0.6076" y="-1" relative="1" as="geometry">
            <mxPoint as="offset" />
          </mxGeometry>
        </mxCell>
        <mxCell id="3V6S1HHqgzO34eC3wB2g-51" value="" style="edgeStyle=orthogonalEdgeStyle;rounded=0;orthogonalLoop=1;jettySize=auto;html=1;" edge="1" parent="1" source="3V6S1HHqgzO34eC3wB2g-47" target="3V6S1HHqgzO34eC3wB2g-50">
          <mxGeometry relative="1" as="geometry" />
        </mxCell>
        <mxCell id="3V6S1HHqgzO34eC3wB2g-52" value="TRUE" style="edgeLabel;html=1;align=center;verticalAlign=middle;resizable=0;points=[];" vertex="1" connectable="0" parent="3V6S1HHqgzO34eC3wB2g-51">
          <mxGeometry x="-0.2083" y="2" relative="1" as="geometry">
            <mxPoint as="offset" />
          </mxGeometry>
        </mxCell>
        <mxCell id="3V6S1HHqgzO34eC3wB2g-56" value="" style="edgeStyle=orthogonalEdgeStyle;rounded=0;orthogonalLoop=1;jettySize=auto;html=1;" edge="1" parent="1" source="3V6S1HHqgzO34eC3wB2g-47" target="3V6S1HHqgzO34eC3wB2g-55">
          <mxGeometry relative="1" as="geometry" />
        </mxCell>
        <mxCell id="3V6S1HHqgzO34eC3wB2g-58" value="FALSE" style="edgeLabel;html=1;align=center;verticalAlign=middle;resizable=0;points=[];" vertex="1" connectable="0" parent="3V6S1HHqgzO34eC3wB2g-56">
          <mxGeometry x="-0.1167" y="1" relative="1" as="geometry">
            <mxPoint as="offset" />
          </mxGeometry>
        </mxCell>
        <mxCell id="3V6S1HHqgzO34eC3wB2g-47" value="Tutti d&#39;accordo sul genere" style="rhombus;whiteSpace=wrap;html=1;strokeWidth=2;" vertex="1" parent="1">
          <mxGeometry x="-90" y="950" width="120" height="120" as="geometry" />
        </mxCell>
        <mxCell id="3V6S1HHqgzO34eC3wB2g-62" value="" style="edgeStyle=orthogonalEdgeStyle;rounded=0;orthogonalLoop=1;jettySize=auto;html=1;" edge="1" parent="1" source="3V6S1HHqgzO34eC3wB2g-50" target="3V6S1HHqgzO34eC3wB2g-61">
          <mxGeometry relative="1" as="geometry" />
        </mxCell>
        <mxCell id="3V6S1HHqgzO34eC3wB2g-50" value="Il genere è deciso" style="whiteSpace=wrap;html=1;strokeWidth=2;" vertex="1" parent="1">
          <mxGeometry x="120" y="1030" width="120" height="60" as="geometry" />
        </mxCell>
        <mxCell id="3V6S1HHqgzO34eC3wB2g-57" style="edgeStyle=orthogonalEdgeStyle;rounded=0;orthogonalLoop=1;jettySize=auto;html=1;exitX=0;exitY=0.5;exitDx=0;exitDy=0;entryX=0;entryY=0.5;entryDx=0;entryDy=0;" edge="1" parent="1" source="3V6S1HHqgzO34eC3wB2g-55" target="3V6S1HHqgzO34eC3wB2g-47">
          <mxGeometry relative="1" as="geometry" />
        </mxCell>
        <mxCell id="3V6S1HHqgzO34eC3wB2g-55" value="Sfoglia altri generi" style="whiteSpace=wrap;html=1;strokeWidth=2;" vertex="1" parent="1">
          <mxGeometry x="-90" y="1109" width="120" height="60" as="geometry" />
        </mxCell>
        <mxCell id="3V6S1HHqgzO34eC3wB2g-64" value="" style="edgeStyle=orthogonalEdgeStyle;rounded=0;orthogonalLoop=1;jettySize=auto;html=1;" edge="1" parent="1" source="3V6S1HHqgzO34eC3wB2g-61" target="3V6S1HHqgzO34eC3wB2g-63">
          <mxGeometry relative="1" as="geometry" />
        </mxCell>
        <mxCell id="3V6S1HHqgzO34eC3wB2g-72" value="TRUE" style="edgeLabel;html=1;align=center;verticalAlign=middle;resizable=0;points=[];" vertex="1" connectable="0" parent="3V6S1HHqgzO34eC3wB2g-64">
          <mxGeometry x="-0.0952" y="-2" relative="1" as="geometry">
            <mxPoint as="offset" />
          </mxGeometry>
        </mxCell>
        <mxCell id="3V6S1HHqgzO34eC3wB2g-66" value="" style="edgeStyle=orthogonalEdgeStyle;rounded=0;orthogonalLoop=1;jettySize=auto;html=1;" edge="1" parent="1" source="3V6S1HHqgzO34eC3wB2g-61" target="3V6S1HHqgzO34eC3wB2g-65">
          <mxGeometry relative="1" as="geometry" />
        </mxCell>
        <mxCell id="3V6S1HHqgzO34eC3wB2g-73" value="FALSE" style="edgeLabel;html=1;align=center;verticalAlign=middle;resizable=0;points=[];" vertex="1" connectable="0" parent="3V6S1HHqgzO34eC3wB2g-66">
          <mxGeometry x="-0.0476" y="-2" relative="1" as="geometry">
            <mxPoint as="offset" />
          </mxGeometry>
        </mxCell>
        <mxCell id="3V6S1HHqgzO34eC3wB2g-61" value="Tutti d&#39;accordo col titolo scelto" style="rhombus;whiteSpace=wrap;html=1;strokeWidth=2;" vertex="1" parent="1">
          <mxGeometry x="115" y="1200" width="130" height="130" as="geometry" />
        </mxCell>
        <mxCell id="3V6S1HHqgzO34eC3wB2g-63" value="Titolo scelto" style="whiteSpace=wrap;html=1;strokeWidth=2;" vertex="1" parent="1">
          <mxGeometry x="350" y="1235" width="120" height="60" as="geometry" />
        </mxCell>
        <mxCell id="3V6S1HHqgzO34eC3wB2g-71" style="edgeStyle=orthogonalEdgeStyle;rounded=0;orthogonalLoop=1;jettySize=auto;html=1;exitX=0;exitY=0.5;exitDx=0;exitDy=0;entryX=0;entryY=0.5;entryDx=0;entryDy=0;" edge="1" parent="1" source="3V6S1HHqgzO34eC3wB2g-65" target="3V6S1HHqgzO34eC3wB2g-61">
          <mxGeometry relative="1" as="geometry" />
        </mxCell>
        <mxCell id="3V6S1HHqgzO34eC3wB2g-65" value="Sfoglia altri titoli" style="whiteSpace=wrap;html=1;strokeWidth=2;" vertex="1" parent="1">
          <mxGeometry x="120" y="1400" width="120" height="60" as="geometry" />
        </mxCell>
      </root>
    </mxGraphModel>
  </diagram>
</mxfile>
